# xmcd CD database file
#
# Track frame offsets:
#	150
#	24082
#	44027
#
# Disc length: 903 seconds
#
# Revision: 0
# Processed by: cddbd v1.5.1PL0 Copyright (c) Steve Scherf et al.
# Submitted via: CDex 1.51
#
DISCID=1c038503
DTITLE=高野 寛&田島貴男 - Winter's Tale 〜冬物語〜
DYEAR=1992
DGENRE=Pop
TTITLE0=Winter's Tale 〜冬物語〜
TTITLE1=Affair
TTITLE2=Winter's Tale 〜冬物語〜 (オリジナル・カラオケ)
EXTD=YEAR: 1992
EXTT0=
EXTT1=
EXTT2=
PLAYORDER=
